<svg xmlns="http://www.w3.org/2000/svg" xmlns:xlink="http://www.w3.org/1999/xlink" width="65" height="30.36" viewBox="0 0 65 30.36"><defs><style>.a{fill:none;}.b{clip-path:url(#a);}.c{fill:url(#b);}</style><clipPath id="a"><path class="a" d="M42.47,17.87,32.65,21a.19.19,0,0,0-.12.11L30.87,25.2a.19.19,0,0,0,.23.25l8.66-2.8,1,2.67a.2.2,0,0,0,.18.12h4.4a.19.19,0,0,0,.18-.25L42.7,18a.19.19,0,0,0-.17-.12h-.06M16.61,4.78a.19.19,0,0,0-.17.12l-5,10.9-5-10.9a.18.18,0,0,0-.17-.12H.46A.18.18,0,0,0,.28,5V25.27a.18.18,0,0,0,.18.18h4a.18.18,0,0,0,.19-.18V10.58L9.81,22.81a.19.19,0,0,0,.17.12h3a.17.17,0,0,0,.17-.12l5.13-12.23V25.27a.19.19,0,0,0,.19.18H22.5a.19.19,0,0,0,.19-.18V5a.19.19,0,0,0-.19-.18Zm15.69,0a.2.2,0,0,0-.18.12L24.27,25.2a.18.18,0,0,0,.17.25h4.13l2.55-6.27,3.81-9.94,3.06,8a.19.19,0,0,0,.23.11l3.61-1.17A.19.19,0,0,0,42,16L37.73,4.9a.17.17,0,0,0-.17-.12ZM44.92,15.1c0,6.51,5,10.72,11,10.72A11.44,11.44,0,0,0,64.67,22a.18.18,0,0,0,0-.12v-8.3a.18.18,0,0,0-.18-.18H57.65c-.1,0-1.39,3.59-1.39,3.59a.19.19,0,0,0,.18.19h3.94v3.16a7,7,0,0,1-4.46,1.58,6.44,6.44,0,0,1-6.48-6.79,6.44,6.44,0,0,1,6.48-6.79,5.89,5.89,0,0,1,4,1.52.17.17,0,0,0,.18,0L64,8.61a.19.19,0,0,0,.1-.29,9.67,9.67,0,0,0-8.13-3.91c-6,0-11,4.15-11,10.69"/></clipPath><linearGradient id="b" x1="-835.12" y1="626.98" x2="-834.9" y2="626.98" gradientTransform="translate(216173.31 -162280.58) scale(258.85)" gradientUnits="userSpaceOnUse"><stop offset="0" stop-color="#00b4e1"/><stop offset="1" stop-color="#0064b0"/></linearGradient></defs><title>mag-logo-01</title><g class="b"><rect class="c" x="2.14" y="-15.24" width="60.71" height="60.71" transform="translate(-1.17 27.41) rotate(-45)"/></g></svg>